<svg id="Layer_1" data-name="Layer 1" xmlns="http://www.w3.org/2000/svg" viewBox="0 0 512 512"><defs><style>.cls-1{fill:#141f38;}</style></defs><title>phone-outline</title><circle class="cls-1" cx="256" cy="460.8" r="12.8"/><path class="cls-1" d="M332.8,0H179.2a64,64,0,0,0-64,64V448a64,64,0,0,0,64,64H332.8a64,64,0,0,0,64-64V64A64,64,0,0,0,332.8,0Zm38.4,448a38.44,38.44,0,0,1-38.4,38.4H179.2A38.44,38.44,0,0,1,140.8,448V435.2H371.2Zm0-38.4H140.8V102.4H371.2ZM140.8,76.8V64a38.44,38.44,0,0,1,38.4-38.4H332.8A38.44,38.44,0,0,1,371.2,64V76.8Z"/><path class="cls-1" d="M268.8,38.4H243.2a12.8,12.8,0,0,0,0,25.6h25.6a12.8,12.8,0,0,0,0-25.6Z"/></svg>